<?xml version="1.0" encoding="UTF-8"?>
<svg width="34px" height="38px" viewBox="0 0 34 38" version="1.1" xmlns="http://www.w3.org/2000/svg" xmlns:xlink="http://www.w3.org/1999/xlink">
    <!-- Generator: Sketch 52.5 (67469) - http://www.bohemiancoding.com/sketch -->
    <title>Shape</title>
    <desc>Created with Sketch.</desc>
    <g id="Page-1" stroke="none" stroke-width="1" fill="none" fill-rule="evenodd">
        <g id="Desktop-HD" transform="translate(-871.000000, -131.000000)" fill="#539E43" fill-rule="nonzero">
            <g id="Group-2" transform="translate(0.000000, -21.000000)">
                <g id="nodejs-seeklogo.com" transform="translate(871.000000, 152.000000)">
                    <path d="M16.9999999,38 C16.4720496,38 15.979296,37.8603581 15.521739,37.6159852 L10.8405797,34.8580614 C10.1366458,34.4740467 10.4886129,34.3344049 10.6997928,34.264584 C11.6501034,33.9503905 11.8260869,33.8805693 12.8115943,33.3220024 C12.9171841,33.2521817 13.057971,33.2870922 13.1635611,33.3569129 L16.7536231,35.486449 C16.8944101,35.5562699 17.0703934,35.5562699 17.1759836,35.486449 L31.2194617,27.4221406 C31.3602486,27.3523195 31.4306419,27.2126779 31.4306419,27.0381258 L31.4306419,10.944419 C31.4306419,10.7698666 31.3602486,10.630225 31.2194617,10.5604042 L17.1759836,2.53100596 C17.0351966,2.46118518 16.8592133,2.46118518 16.7536231,2.53100596 L2.7101447,10.5604042 C2.5693581,10.630225 2.49896479,10.8047771 2.49896479,10.944419 L2.49896479,27.0381258 C2.49896479,27.1777674 2.5693581,27.3523195 2.7101447,27.4221406 L6.54658375,29.6214975 C8.62318843,30.6688101 9.92546588,29.4469453 9.92546588,28.2250803 L9.92546588,12.3408358 C9.92546588,12.1313735 10.1014493,11.9219108 10.347826,11.9219108 L12.1428572,11.9219108 C12.3540374,11.9219108 12.5652173,12.0964629 12.5652173,12.3408358 L12.5652173,28.2250803 C12.5652173,30.983004 11.0517599,32.5888835 8.41200823,32.5888835 C7.6024845,32.5888835 6.96894417,32.5888835 5.173913,31.716123 L1.47826086,29.6214975 C0.563147022,29.0978409 0,28.120349 0,27.073036 L0,10.9793292 C0,9.93201662 0.563147022,8.95452448 1.47826086,8.43086816 L15.521739,0.366559327 C16.4016563,-0.122186442 17.5983437,-0.122186442 18.478261,0.366559327 L32.5217391,8.43086816 C33.436853,8.95452448 34,9.93201662 34,10.9793292 L34,27.073036 C34,28.120349 33.436853,29.0978409 32.5217391,29.6214975 L18.478261,37.6858059 C18.0207038,37.8952686 17.4927536,38 16.9999999,38 Z M21.3291926,26.9333945 C15.1697722,26.9333945 13.9026915,24.1405602 13.9026915,21.7666512 C13.9026915,21.5571887 14.078675,21.3477262 14.3250516,21.3477262 L16.1552796,21.3477262 C16.3664595,21.3477262 16.5424429,21.4873678 16.5424429,21.6968304 C16.8240164,23.5470831 17.6335405,24.4547542 21.3643891,24.4547542 C24.3209111,24.4547542 25.5879917,23.791456 25.5879917,22.2204868 C25.5879917,21.3128157 25.2360249,20.6495176 20.6252586,20.195682 C16.7888199,19.8116673 14.3954453,18.973817 14.3954453,15.9366099 C14.3954453,13.1088653 16.7888199,11.4331648 20.8012424,11.4331648 C25.3064182,11.4331648 27.5238095,12.9692238 27.805383,16.3206246 C27.805383,16.4253559 27.7701862,16.5300873 27.699793,16.6348186 C27.6293997,16.7046393 27.5238095,16.7744601 27.4182194,16.7744601 L25.5879917,16.7744601 C25.4120084,16.7744601 25.2360249,16.6348186 25.2008282,16.4602664 C24.7784681,14.540193 23.6873705,13.9118051 20.8012424,13.9118051 C17.5631469,13.9118051 17.1759836,15.0289388 17.1759836,15.866789 C17.1759836,16.8791915 17.6335405,17.1933854 21.9979297,17.7519523 C26.3271223,18.3105191 28.3685301,19.1134589 28.3685301,22.1157554 C28.3333333,25.1878731 25.799172,26.9333945 21.3291926,26.9333945 Z" id="Shape"></path>
                </g>
            </g>
        </g>
    </g>
</svg>